<svg width="176" height="87" viewBox="0 0 176 87" fill="none" xmlns="http://www.w3.org/2000/svg">
<path d="M154.1 86H166.8C171.7 86 175.8 82 175.8 77V74.7C175.8 69.8 171.8 65.7 166.8 65.7H154.1C149.2 65.7 145.1 69.7 145.1 74.7V77C145.1 82 149.1 86 154.1 86Z" fill="white"/>
<path fill-rule="evenodd" clip-rule="evenodd" d="M153.2 0.5C154.2 0.5 155.1 1 155.5 1.9C155.7 2.3 155.8 2.7 155.8 3.2H157.4C158.4 3.2 159.3 3.7 159.7 4.6C160.2 5.5 160.1 6.5 159.6 7.3L144.4 29.8L142.6 38.9C143.9 38.9 144.9 39.8 145.2 41L145.3 41.5H146.8C148.1 41.5 149.1 42.4 149.4 43.6V43.8L151.6 40.1C152.1 39.3 152.9 38.8 153.9 38.8H162.8C163.6 38.8 164.3 39.1 164.8 39.8C165.2 40.3 165.4 40.9 165.4 41.5H167C167.8 41.5 168.5 41.8 169 42.5C169.5 43.1 169.7 43.9 169.6 44.7L164.3 72C164.1 73.3 163 74.1 161.7 74.1H159.6C159.8 74.3 160 74.6 160.2 74.9C160.6 75.8 160.5 76.8 159.8 77.6V77.7L159.6 78.7C159.5 79.2 159.3 79.7 159 80.1C159.1 80.6 159.1 81.1 158.9 81.6L158.6 82.8C158.7 83.5 158.6 84.1 158.2 84.7C157.7 85.5 156.9 85.9 156 85.9H153.8C153.6 85.9 153.5 85.9 153.3 85.9C153.1 85.9 153 85.9 152.8 85.9H150.6C150.5 85.9 150.3 85.9 150.2 85.9C150.1 85.9 149.9 85.9 149.8 85.9H147.6C147.5 85.9 147.5 85.9 147.4 85.9C147.3 85.9 147.2 85.9 147.2 85.9H145C144.9 85.9 144.9 85.9 144.8 85.9C144.4 86 144.1 86 143.7 86C143 86 142.4 85.9 141.8 85.6C141.4 85.8 141 85.9 140.6 85.9H138.4C138.1 85.9 137.8 85.9 137.5 85.8C137.2 85.9 136.9 85.9 136.6 85.9H134.4C134.3 85.9 134.1 85.9 134 85.9C133.9 85.9 133.7 85.9 133.6 85.9H131.4C131 85.9 130.6 85.8 130.3 85.7H130.2C129.5 85.9 128.8 86 128.1 86C127.4 86 126.7 85.9 126 85.7C126 85.7 125.9 85.7 125.9 85.6C125.6 85.7 125.2 85.8 124.8 85.8H122.9C122.7 85.8 122.6 85.8 122.4 85.8C122.2 85.8 122.1 85.8 121.9 85.8H120.7C120.5 85.8 120.4 85.8 120.2 85.8C120 85.8 119.9 85.8 119.7 85.8H117.8C117.4 85.8 117 85.7 116.7 85.6H116.6C115.9 85.8 115.2 85.9 114.5 85.9C113.8 85.9 113.1 85.8 112.4 85.6C112.4 85.6 112.3 85.6 112.3 85.5C112 85.6 111.6 85.7 111.2 85.7H109C108.9 85.7 108.7 85.7 108.6 85.7C108.5 85.7 108.3 85.7 108.2 85.7H106C105.9 85.7 105.7 85.7 105.6 85.7C105.5 85.7 105.3 85.7 105.2 85.7H103.2C102.9 85.7 102.7 85.7 102.4 85.6C102.2 85.7 101.9 85.7 101.6 85.7H99.5001C99.4001 85.7 99.2001 85.7 99.1001 85.7C99.0001 85.7 98.8001 85.7 98.7001 85.7H90.4001C89.9001 85.7 89.4001 85.6 89.0001 85.3C88.6001 85.6 88.1001 85.7 87.6001 85.7H85.6001C85.3001 85.7 85.1001 85.7 84.8001 85.6C84.3001 86 84.1001 86 83.8001 86H81.7001C81.6001 86 81.4001 86 81.3001 86C81.2001 86 81.0001 86 80.9001 86H78.7001C78.3001 86 78.0001 85.9 77.7001 85.8H77.6001C76.9001 86 76.1001 86 75.4001 86H72.8001C72.7001 86 72.5001 86 72.4001 86C72.3001 86 72.1001 86 72.0001 86H69.8001C69.7001 86 69.5001 86 69.4001 86C69.3001 86 69.1001 86 69.0001 86H66.8001C66.4001 86 66.1001 85.9 65.8001 85.8H65.7001C64.9001 86 64.1001 86 63.4001 86H60.8001C60.7001 86 60.5001 86 60.4001 86C60.3001 86 60.2001 86 60.0001 86H57.8001C57.4001 86 57.1001 85.9 56.8001 85.8C56.7001 85.8 56.7001 85.8 56.6001 85.8C55.9001 86 55.1001 86 54.4001 86H54.0001C53.9001 86 53.9001 86 53.8001 86C53.7001 86 53.7001 86 53.6001 86H51.6001C51.3001 86 51.1001 86 50.8001 85.9C50.6001 86 50.3001 86 50.1001 86H48.0001C47.6001 86 47.2001 85.9 46.8001 85.7C46.1001 85.9 45.4001 86 44.6001 86C44.2001 86 43.8001 86 43.4001 86H43.3001C42.7001 85.9 42.1001 85.7 41.6001 85.4C41.3001 85.5 41.1001 85.7 40.8001 85.8C40.1001 86 39.4001 86.1 38.7001 86.1C38.0001 86.1 37.3001 86 36.6001 85.8C36.5001 85.8 36.5001 85.8 36.4001 85.7C36.1001 85.9 35.7001 85.9 35.3001 85.9H33.2001C33.1001 85.9 32.9001 85.9 32.8001 85.9C32.7001 85.9 32.5001 85.9 32.4001 85.9H31.0001C30.8001 85.9 30.7001 85.9 30.6001 85.9C30.5001 85.9 30.3001 85.9 30.2001 85.9H28.1001C27.3001 85.9 26.5001 85.5 26.0001 84.9C25.6001 84.4 25.4001 83.8 25.4001 83.2H23.8001C23.0001 83.2 22.2001 82.8 21.7001 82.2C21.2001 81.5 21.0001 80.8 21.2001 79.9L23.4001 70.9C23.5001 70.5 23.7001 70.1 24.0001 69.8C23.8001 69.3 23.7001 68.7 23.8001 68.2L29.2001 41C29.3001 40.5 29.5001 40 29.9001 39.7C27.4001 40.7 24.7001 41.1 21.9001 41.1C17.8001 41.1 13.8001 40.3 10.1001 38.5C8.90008 37.9 7.80008 37.3 6.80008 36.5C6.50008 36.3 6.20008 36.1 5.90008 35.8C4.70008 35.2 3.60008 34.6 2.60008 33.8C2.10008 33.4 1.60008 33 1.10008 32.7C7.80821e-05 31.9 -0.299922 30.3 0.500078 29.1L5.90008 21C6.20008 20.6 6.50008 20.3 6.90008 20.1C5.90008 18.6 5.30008 16.9 5.30008 15C5.00008 8.8 10.4001 2.8 16.2001 1C20.6001 -0.4 26.3001 -0.2 30.8001 0.8C32.7001 1.2 34.8001 2.3 36.6001 3.4L36.8001 2.3C37.0001 1 38.1001 0.2 39.4001 0.2H49.7001C50.5001 0.2 51.2001 0.5 51.7001 1.2C52.1001 1.7 52.3001 2.3 52.3001 2.9H53.9001C54.7001 2.9 55.4001 3.2 55.9001 3.9C56.0001 4 56.1001 4.2 56.2001 4.3L56.6001 2.4C56.8001 1.1 57.9001 0.3 59.2001 0.3H69.5001C70.3001 0.3 71.0001 0.6 71.5001 1.3C71.6001 1.4 71.6001 1.5 71.7001 1.5C72.2001 0.8 73.0001 0.3 73.9001 0.3H84.2001C85.0001 0.3 85.7001 0.6 86.2001 1.3C86.3001 1.4 86.3001 1.5 86.4001 1.5C86.9001 0.8 87.7001 0.3 88.6001 0.3H97.0001C98.0001 0.3 98.9001 0.8 99.3001 1.7L100 3H101.2C102.2 3 103.1 3.5 103.5 4.4L105.6 8.4L106.8 2.4C107 1.1 108.1 0.3 109.4 0.3H118.6C119 0.3 119.4 0.4 119.8 0.6C120 0.6 120.2 0.5 120.3 0.5H130.6C131.8 0.5 132.8 1.2 133.1 2.4L133.3 3.2H134.8C136 3.2 137 3.9 137.3 5.1L137.6 6L140.5 1.7C141 1 141.8 0.5 142.7 0.5H153.2Z" fill="white"/>
<path fill-rule="evenodd" clip-rule="evenodd" d="M39.3001 2.90003L33.0001 35.7H43.3001L45.6001 23.8H55.1001L52.7001 35.6H63.0001L69.4001 2.90003H59.2001L56.7001 15.6H47.2001L49.7001 2.90003H39.3001ZM67.6001 35.6H77.8001L84.2001 2.90003H73.9001L67.6001 35.6ZM88.6001 2.90003L82.2001 35.7H91.6001L94.8001 19.1L103.8 35.6H112.5L118.8 2.90003H109.6L106.2 20L97.1001 2.90003H88.6001ZM137.6 26L153.1 3.10003H142.8L141.8 4.60003L134.4 15.5L130.7 3.10003H120.4L127.3 26L125.4 35.6H135.7L137.6 26ZM21.7001 25.8C21.3001 28 18.3001 27.9 14.5001 26.6C10.7001 25.3 8.0001 22.5 8.0001 22.5L2.6001 30.6C3.3001 31.1 8.3001 35.9 17.6001 35.8C27.9001 35.7 32.1001 29.7 32.4001 23.7C32.7001 17.7 28.4001 16.6 24.9001 15.4C21.4001 14.2 18.5001 13.8 18.7001 12.1C18.9001 10.4 21.0001 10.2 24.3001 11.2C27.6001 12.2 30.9001 14.4 30.9001 14.4L36.2001 6.30003C36.2001 6.30003 32.9001 3.90003 30.1001 3.30003C27.3001 2.70003 21.6001 2.10003 17.0001 3.50003C12.3001 5.00003 7.7001 9.90003 7.8001 14.9C8.0001 19.9 12.1001 21.3 15.0001 22.3C17.8001 23.3 22.1001 23.6 21.7001 25.8Z" fill="#FFD300"/>
<path fill-rule="evenodd" clip-rule="evenodd" d="M59.5002 68.8H67.9002C69.7002 59.7 71.5002 50.6 73.2002 41.5H64.7002C62.9002 50.6 61.2002 59.7 59.5002 68.8ZM89.9002 60.7L91.1002 54.4H98.4002L96.3002 65.5C96.3002 65.5 91.5002 68.9 84.1002 68.9C76.7002 68.9 72.2002 63.7 72.8002 57.1C73.4002 50.5 77.4002 43.8 86.3002 41.7C90.8002 40.7 94.3002 41.6 96.8002 42.8C99.3002 44 100.6 45.4 100.6 45.4L94.6002 51.5C94.6002 51.5 91.8002 48.1 87.8002 48.8C83.8002 49.4 81.9002 53.3 81.6002 55.9C81.4002 58.6 83.1002 63.7 89.9002 60.7ZM150.1 68.8H157.5L162.8 41.5H153.9L145.4 55.7L142.6 41.5H133.6L128.4 68.8H135.8L138.7 53.7L140.8 65.8H146.4L153.1 53.9L150.1 68.8ZM114.2 42C121.7 42 127.8 48.1 127.8 55.6C127.8 63.1 121.7 69.2 114.2 69.2C106.7 69.2 100.6 63.1 100.6 55.6C100.6 48.1 106.7 42 114.2 42ZM48.4002 68.8H55.8002L61.1002 41.5H52.2002L43.7002 55.7L40.9002 41.5H31.9002L26.7002 68.8H34.1002L37.0002 53.7L39.0002 65.9H44.6002L51.3002 54L48.4002 68.8Z" fill="#040007"/>
<path fill-rule="evenodd" clip-rule="evenodd" d="M114.6 48.9V49C114.5 49.4 114.4 49.7 114.3 49.9L113.5 52.8H111.6L113.8 49.9C113.9 49.7 114.1 49.6 114.2 49.4C114.4 49.2 114.5 49.1 114.6 48.9ZM114.3 47.4L110 52.9L109.6 54.7H113.1L112.6 56.9H114.4L114.9 54.7H116L116.4 52.9H115.3L116.6 47.4H114.3ZM119.7 50.1L114.2 61.1H115.4L120.9 50.1H119.7ZM119.8 55.5L119.3 57.7H122.8L118 65H120.3L126.1 55.8L126.2 55.5H119.8ZM109.7 50.1C109.8 49.3 109.6 48.6 109.1 48C108.6 47.5 108 47.2 107.1 47.2C106.2 47.2 105.4 47.5 104.8 48.1C104.2 48.7 103.8 49.6 103.6 50.7H105.5C105.6 50.2 105.7 49.9 105.9 49.6C106.1 49.3 106.4 49.2 106.7 49.2C107 49.2 107.2 49.3 107.3 49.5C107.4 49.7 107.5 49.9 107.5 50.2C107.5 50.5 107.4 50.7 107.2 51.1C107 51.4 106.7 51.8 106.2 52.4L102.3 57H108.3L108.8 54.9H107.1C107 54.9 106.9 54.9 106.8 54.9C106.6 54.9 106.5 54.9 106.3 54.9L107.5 53.7C108.2 53 108.7 52.4 109.1 51.8C109.4 51.3 109.6 50.7 109.7 50.1Z" fill="#FFD300"/>
<path d="M151.7 80.7H149.5C149.4 80.5 149.4 80.2 149.5 79.8L149.9 78.2C150 77.7 149.8 77.4 149.4 77.4L148.6 80.6H146.4L147.2 77.4C146.8 77.4 146.5 77.7 146.4 78.2L146 79.8C145.9 80.3 145.7 80.6 145.5 80.7H143.3C143.5 80.5 143.7 80.1 143.8 79.6L144.1 78.3C144.3 77.7 144.7 77.3 145.6 77C145.8 76.9 146.1 76.9 146.4 76.8C146.3 76.8 146 76.7 145.7 76.6C145.4 76.4 145.2 76.3 145.1 76.2C144.9 76 144.8 75.7 144.9 75.3L145.1 74.3C145.2 73.8 145.2 73.5 145.1 73.2H147.3C147.4 73.4 147.4 73.7 147.3 74.1L147 75.4C146.9 75.9 147 76.2 147.4 76.2L148.1 73.3H150.3L149.6 76.2C150.1 76.2 150.4 75.9 150.5 75.4L150.8 74.1C150.9 73.6 151.1 73.3 151.3 73.2H153.5C153.3 73.4 153.1 73.8 153 74.3L152.8 75.3C152.7 75.7 152.5 76 152.2 76.2C152.1 76.3 151.8 76.4 151.4 76.6C151.1 76.7 150.9 76.8 150.6 76.8C150.7 76.8 150.9 76.9 151.3 77C152 77.2 152.3 77.7 152.1 78.3L151.8 79.6C151.6 80.1 151.6 80.4 151.7 80.7ZM141.5 77.2C141.1 77.5 140.8 77.7 140.7 77.9C140.6 78.1 140.5 78.3 140.4 78.7C140.3 79.1 140.3 79.3 140.3 79.4C140.3 79.5 140.4 79.6 140.6 79.6C140.7 79.6 140.8 79.6 140.9 79.5C141 79.4 141 79.2 141.1 78.8L141.5 77.2ZM141.1 76.2H139L139.1 75.7C139.2 75.1 139.4 74.7 139.6 74.4C139.8 74.1 140.1 73.8 140.6 73.6C141.1 73.4 141.6 73.2 142.2 73.2C143 73.2 143.5 73.3 143.8 73.6C144.1 73.9 144.3 74.2 144.2 74.6C144.2 75 144 75.8 143.7 77L142.8 80.7H140.6L140.8 80C140.6 80.3 140.4 80.5 140.1 80.6C139.9 80.7 139.6 80.8 139.3 80.8C138.9 80.8 138.6 80.7 138.3 80.5C138 80.3 138 79.8 138.2 79L138.4 78.4C138.5 77.8 138.7 77.5 138.9 77.3C139.1 77.1 139.6 76.9 140.4 76.6C141.2 76.3 141.7 76.1 141.7 76C141.8 75.9 141.9 75.7 141.9 75.4C142 75 142 74.8 142 74.6C142 74.5 141.9 74.4 141.8 74.4C141.6 74.4 141.5 74.4 141.5 74.5C141.4 74.6 141.4 74.9 141.3 75.3L141.1 76.2ZM139.3 73.3L138.9 74.9H137.6L136.1 80.7H134L135.5 74.9H134.2L134.6 73.3H139.3ZM132.2 80.7H130L130.7 78H129.9L129.2 80.7H127L128.8 73.3H131L130.3 76H131.1L131.8 73.3H134L132.2 80.7ZM125.3 75.3C125.4 74.9 125.4 74.7 125.4 74.6C125.4 74.5 125.3 74.5 125.2 74.5C125.1 74.5 125 74.5 124.9 74.6C124.8 74.7 124.7 74.9 124.7 75.3L123.9 78.6C123.8 79 123.8 79.2 123.8 79.3C123.8 79.4 123.9 79.5 124 79.5C124.1 79.5 124.2 79.5 124.3 79.4C124.4 79.3 124.4 79.1 124.5 78.8L125.3 75.3ZM127.4 75.9L126.9 77.7C126.7 78.4 126.6 78.9 126.4 79.2C126.3 79.5 126 79.8 125.8 80.1C125.5 80.4 125.2 80.6 124.8 80.7C124.4 80.8 124 80.9 123.6 80.9C123.1 80.9 122.7 80.8 122.4 80.7C122.1 80.6 121.9 80.4 121.7 80.2C121.6 80 121.5 79.7 121.5 79.4C121.5 79.1 121.6 78.6 121.7 78L122.2 76.1C122.4 75.4 122.6 74.9 122.8 74.5C123 74.1 123.4 73.8 123.8 73.6C124.2 73.4 124.8 73.2 125.4 73.2C125.9 73.2 126.3 73.3 126.6 73.4C126.9 73.6 127.2 73.7 127.3 74C127.4 74.2 127.5 74.5 127.5 74.7C127.6 75 127.5 75.4 127.4 75.9ZM120.3 80.7H118.4L119.7 75.6L117.5 80.7H116.3L116.6 75.6L115.3 80.7H113.4L115.2 73.3H118L117.7 77.4L119.4 73.3H122.2L120.3 80.7ZM111.7 75.3C111.8 74.9 111.8 74.7 111.8 74.6C111.8 74.5 111.7 74.5 111.6 74.5C111.5 74.5 111.4 74.5 111.3 74.6C111.2 74.7 111.1 74.9 111.1 75.3L110.3 78.6C110.2 79 110.2 79.2 110.2 79.3C110.2 79.4 110.3 79.5 110.4 79.5C110.5 79.5 110.6 79.5 110.7 79.4C110.8 79.3 110.8 79.1 110.9 78.8L111.7 75.3ZM113.8 75.9L113.3 77.7C113.1 78.4 113 78.9 112.8 79.2C112.7 79.5 112.4 79.8 112.2 80.1C112 80.4 111.6 80.6 111.2 80.7C110.8 80.8 110.4 80.9 110 80.9C109.5 80.9 109.1 80.8 108.8 80.7C108.5 80.6 108.3 80.4 108.1 80.2C108 80 107.9 79.7 107.9 79.4C107.9 79.1 108 78.6 108.1 78L108.6 76.1C108.8 75.4 109 74.9 109.2 74.5C109.4 74.1 109.8 73.8 110.2 73.6C110.6 73.4 111.2 73.2 111.8 73.2C112.3 73.2 112.7 73.3 113 73.4C113.3 73.6 113.6 73.7 113.7 74C113.8 74.2 113.9 74.5 113.9 74.7C114 75 113.9 75.4 113.8 75.9ZM106.7 80.7H104.5L105.2 78H104.4L103.7 80.7H101.5L103.3 73.3H105.5L104.8 76H105.6L106.3 73.3H108.5L106.7 80.7ZM100.6 80.7H98.6001L99.6001 76.7L97.0001 80.7H95.0001L96.8001 73.3H98.8001L97.8001 77.3L100.3 73.3H102.4L100.6 80.7ZM91.6001 79.1H92.4001L93.9001 73.3H96.1001L94.3001 80.7H86.0001L87.8001 73.3H90.0001L88.5001 79.1H89.3001L90.8001 73.3H93.0001L91.6001 79.1ZM83.3001 71.1H84.2001C84.1001 71.6 83.8001 72 83.5001 72.3C83.1001 72.6 82.7001 72.8 82.2001 72.8C81.7001 72.8 81.4001 72.6 81.2001 72.3C81.0001 72 81.0001 71.6 81.1001 71.1H82.0001C81.9001 71.6 82.1001 71.9 82.4001 71.9C82.9001 71.9 83.2001 71.6 83.3001 71.1ZM83.1001 80.7H81.1001L82.1001 76.7L79.5001 80.7H77.4001L79.2001 73.3H81.2001L80.2001 77.3L82.7001 73.3H84.8001L83.1001 80.7ZM76.7001 80.7H74.5001L76.3001 73.3H78.5001L76.7001 80.7ZM72.2001 78.3L72.3001 78C72.4001 77.6 72.4001 77.4 72.4001 77.3C72.3001 77.2 72.1001 77.2 71.8001 77.2L71.3001 79.2C71.6001 79.2 71.8001 79.2 71.9001 79.1C72.0001 78.9 72.1001 78.7 72.2001 78.3ZM74.3001 78.6C74.1001 79.3 73.9001 79.8 73.7001 80.1C73.5001 80.4 73.2001 80.6 72.8001 80.6C72.4001 80.7 71.9001 80.7 71.1001 80.7H68.5001L70.3001 73.3H72.5001L71.9001 75.8H72.3001C73.0001 75.8 73.5001 75.8 73.9001 75.9C74.2001 76 74.4001 76.2 74.5001 76.5C74.6001 76.8 74.6001 77.2 74.4001 77.9L74.3001 78.6ZM67.8001 80.7H65.6001L66.3001 78H65.5001L64.8001 80.7H62.6001L64.4001 73.3H66.6001L65.9001 76H66.7001L67.4001 73.3H69.6001L67.8001 80.7ZM60.1001 78.3L60.2001 78C60.3001 77.6 60.3001 77.4 60.3001 77.3C60.2001 77.2 60.0001 77.2 59.7001 77.2L59.2001 79.2C59.5001 79.2 59.7001 79.2 59.8001 79.1C59.9001 78.9 60.0001 78.7 60.1001 78.3ZM62.3001 78.6C62.1001 79.3 61.9002 79.8 61.7001 80.1C61.5001 80.4 61.2001 80.6 60.8001 80.6C60.4001 80.7 59.9001 80.7 59.1001 80.7H56.5001L58.3001 73.3H60.5001L60.0001 75.8H60.4001C61.1001 75.8 61.6001 75.8 62.0001 75.9C62.3001 76 62.5001 76.2 62.6001 76.5C62.7001 76.8 62.7001 77.2 62.5001 77.9L62.3001 78.6ZM53.6001 80.7L55.1001 74.9H54.3001L53.4001 78.6C53.2001 79.3 53.0001 79.8 52.8001 80.1C52.6001 80.4 52.3001 80.6 51.9001 80.6C51.5001 80.7 51.0001 80.7 50.2001 80.7H49.8001L50.1001 79.5C50.4001 79.5 50.6001 79.5 50.7001 79.4C50.8001 79.3 50.9001 79.1 51.0001 78.7L52.3001 73.4H57.6001L55.8001 80.8H53.6001V80.7ZM49.4001 80.7H47.4001L48.4001 76.7L45.8001 80.7H43.8001L45.6001 73.3H47.6001L46.6001 77.3L49.1001 73.3H51.2001L49.4001 80.7ZM43.1001 73.3C44.2001 73.3 44.6001 73.7 44.5001 74.6C44.4001 75 44.3001 75.5 44.2001 76L43.8001 77.8C43.6001 78.6 43.4001 79.2 43.2001 79.5C42.7001 80.4 41.7001 80.8 40.5001 80.8C40.0001 80.8 39.7001 80.8 39.6001 80.8C39.3001 80.8 39.1001 80.7 38.9001 80.5C38.6001 80.3 38.5001 79.9 38.4001 79.5C38.4001 79.2 38.5001 78.7 38.6001 78L39.7001 73.7C39.9001 73.1 40.2001 72.6 40.7001 72.2C41.2001 71.8 41.8001 71.6 42.4001 71.6C42.7001 71.6 43.1001 71.6 43.6001 71.7C44.1001 71.7 44.4001 71.8 44.6001 71.8C44.8001 71.8 45.0001 71.8 45.1001 71.7L44.8001 72.9C44.6001 73 44.5001 73 44.3001 73C44.1001 73 43.8001 73 43.5001 73C43.1001 73 42.9001 73 42.7001 73C42.4001 73 42.2001 73.1 42.0001 73.4C42.0001 73.5 41.9001 73.7 41.8001 74.1C42.2001 73.5 42.7001 73.3 43.1001 73.3ZM41.1001 79.2L42.0001 75.4C42.1001 75.1 42.1001 74.9 42.1001 74.8C42.1001 74.6 42.0001 74.5 41.9001 74.5C41.7001 74.5 41.6001 74.6 41.5001 74.8C41.5001 74.9 41.4001 75.1 41.3001 75.4L40.4001 78.9C40.3001 79.3 40.4001 79.5 40.6001 79.5C40.9001 79.6 41.1001 79.4 41.1001 79.2ZM36.2001 75.3C36.3001 74.9 36.3001 74.7 36.3001 74.6C36.3001 74.5 36.2001 74.5 36.1001 74.5C36.0001 74.5 35.9001 74.5 35.8001 74.6C35.7001 74.7 35.6001 74.9 35.6001 75.3L34.8001 78.6C34.7001 79 34.7001 79.2 34.7001 79.3C34.7001 79.4 34.8001 79.5 34.9001 79.5C35.0001 79.5 35.1001 79.5 35.2001 79.4C35.3001 79.3 35.3001 79.1 35.4001 78.8L36.2001 75.3ZM38.3001 75.9L37.9001 77.7C37.7001 78.4 37.6001 78.9 37.4001 79.2C37.3001 79.5 37.0001 79.8 36.8001 80.1C36.6001 80.4 36.2001 80.6 35.8001 80.7C35.4001 80.8 35.0001 80.9 34.6001 80.9C34.1001 80.9 33.7001 80.8 33.4001 80.7C33.1001 80.6 32.9001 80.4 32.7001 80.2C32.6001 80 32.5001 79.7 32.5001 79.4C32.5001 79.1 32.6001 78.6 32.7001 78L33.2001 76.1C33.4001 75.4 33.6001 74.9 33.8001 74.5C34.0001 74.1 34.4001 73.8 34.8001 73.6C35.2001 73.4 35.8001 73.2 36.4001 73.2C36.9001 73.2 37.3001 73.3 37.6001 73.4C37.9001 73.6 38.2001 73.7 38.3001 74C38.4001 74.2 38.5001 74.5 38.5001 74.7C38.5001 75 38.4001 75.4 38.3001 75.9ZM33.4001 71.7L31.2001 80.7H29.1001L30.6001 74.6L28.3001 80.7H26.9001L27.5001 74.7L26.0001 80.7H23.9001L26.1001 71.7H29.1001C29.1001 72.2 29.0001 72.9 28.9001 73.6L28.7001 75.9L30.3001 71.7H33.4001Z" fill="#040007"/>
<path d="M163.5 73.3L161.6 80.7H159.9L157.7 76.7L156.7 80.7H154.7L156.6 73.3H158.3L160.5 77.3L161.5 73.3H163.5ZM163.4 77.4H167.1L166.8 78.6H163L163.4 77.4ZM167.1 73.4C167.4 73.5 167.6 73.7 167.7 74C167.8 74.3 167.9 74.5 167.9 74.8C167.9 75.2 167.8 75.5 167.5 75.8C167.3 76.1 167 76.3 166.6 76.5C166.2 76.7 165.9 76.7 165.4 76.7C165 76.7 164.7 76.6 164.4 76.5C164.1 76.4 163.9 76.2 163.8 75.9C163.7 75.7 163.6 75.4 163.6 75.1C163.6 74.7 163.7 74.4 164 74.1C164.2 73.8 164.5 73.6 164.9 73.4C165.3 73.2 165.6 73.2 166.1 73.2C166.5 73.2 166.8 73.3 167.1 73.4ZM166.3 75.5C166.5 75.3 166.6 75.1 166.6 74.9C166.6 74.7 166.6 74.6 166.5 74.4C166.4 74.3 166.2 74.2 166.1 74.2C165.9 74.2 165.7 74.3 165.5 74.4C165.3 74.6 165.3 74.8 165.2 75C165.2 75.2 165.2 75.3 165.3 75.4C165.4 75.5 165.6 75.6 165.7 75.6C165.9 75.7 166.1 75.7 166.3 75.5Z" fill="black"/>
<path d="M172.4 73.3L170.6 80.7H168.5L169.9 74.9H168.6L169 73.3H172.4Z" fill="black"/>
</svg>
